<svg xmlns="http://www.w3.org/2000/svg" viewBox="0 0 64 64">
  <rect width="64" height="64" rx="16" fill="#F0F9FF"/>
  <rect x="10" y="14" width="44" height="30" rx="4" fill="#0F2744"/>
  <rect x="13" y="17" width="38" height="24" rx="2" fill="#1E3A5F"/>
  <rect x="15" y="19" width="34" height="20" rx="2" fill="#132035"/>
  <rect x="17" y="21" width="22" height="2" rx="1" fill="#2563EB" opacity=".9"/>
  <rect x="17" y="25" width="30" height="2" rx="1" fill="#3B82F6" opacity=".6"/>
  <rect x="17" y="29" width="18" height="2" rx="1" fill="#06B6D4" opacity=".7"/>
  <rect x="17" y="33" width="26" height="2" rx="1" fill="#3B82F6" opacity=".5"/>
  <circle cx="32" cy="16" r="1.5" fill="#06B6D4"/>
  <rect x="7"  y="44" width="50" height="6" rx="3" fill="#1D4ED8"/>
  <rect x="10" y="45" width="5"  height="3" rx="1" fill="#60A5FA"/>
  <rect x="17" y="45" width="5"  height="3" rx="1" fill="#60A5FA"/>
  <rect x="24" y="45" width="5"  height="3" rx="1" fill="#60A5FA"/>
  <rect x="31" y="45" width="8"  height="3" rx="1" fill="#60A5FA"/>
  <rect x="41" y="45" width="5"  height="3" rx="1" fill="#60A5FA"/>
  <rect x="48" y="45" width="5"  height="3" rx="1" fill="#60A5FA"/>
</svg>
